<svg width="76" height="32" viewBox="0 0 76 32" fill="none" xmlns="http://www.w3.org/2000/svg">
<g clip-path="url(#clip0)">
<path d="M14.1847 31.8688C13.7359 31.8823 13.2966 31.7382 12.943 31.4615C12.608 31.2057 12.3641 30.8489 12.2475 30.4438L9.67279 21.8771H9.33547L9.24348 22.0384L6.71844 30.442C6.60153 30.8477 6.35736 31.2051 6.02191 31.4616C5.6684 31.7382 5.22922 31.8823 4.78057 31.8689C4.30882 31.8983 3.84445 31.7408 3.48797 31.4304C3.1721 31.1385 2.94863 30.7606 2.84515 30.3431L0.081044 18.4606C0.0542154 18.3269 0.0330886 18.2108 0.0193943 18.1191C0.00435177 18.004 -0.00213136 17.888 -1.6733e-06 17.772C0.00729485 17.4607 0.13446 17.1643 0.35498 16.9445C0.477801 16.814 0.627803 16.712 0.794375 16.6459C0.960948 16.5797 1.14002 16.551 1.31892 16.5617C1.50459 16.5463 1.69142 16.5698 1.86747 16.6308C2.04352 16.6917 2.20491 16.7888 2.34131 16.9157C2.59906 17.208 2.77102 17.5658 2.83823 17.9497L4.72493 27.381H5.07986L5.1715 27.2194L8.00153 17.6839C8.09029 17.3573 8.28413 17.069 8.55311 16.8635C8.82319 16.6672 9.14851 16.5614 9.48242 16.5614C9.81632 16.5614 10.1416 16.6672 10.4117 16.8635C10.6804 17.0692 10.8741 17.3574 10.9631 17.6839L13.841 27.3807H14.196L14.2763 27.1983L16.1265 17.9466C16.1937 17.5634 16.3659 17.2064 16.6241 16.9153C16.7602 16.7882 16.9215 16.6911 17.0974 16.6302C17.2734 16.5692 17.4601 16.5457 17.6457 16.5613C17.8246 16.5507 18.0037 16.5795 18.1703 16.6456C18.3369 16.7118 18.487 16.8136 18.61 16.9441C18.8301 17.1641 18.9571 17.4604 18.9646 17.7716C18.9665 17.8874 18.9601 18.0032 18.9455 18.1181C18.9313 18.2098 18.9105 18.3264 18.8821 18.4674L16.1191 30.3463C16.0148 30.7622 15.7917 31.1388 15.477 31.4301C15.1206 31.7404 14.6563 31.8979 14.1847 31.8688Z" fill="#F7F7F7"/>
<path d="M22.5539 31.8688C22.3734 31.8763 22.1934 31.8441 22.0267 31.7742C21.8601 31.7044 21.7109 31.5987 21.5897 31.4646C21.3261 31.1572 21.1912 30.7599 21.2134 30.3555V17.9135C21.1913 17.5089 21.326 17.1113 21.5895 16.8034C21.7153 16.6752 21.8654 16.5734 22.031 16.5038C22.1966 16.4343 22.3744 16.3985 22.554 16.3985C22.7336 16.3985 22.9114 16.4343 23.077 16.5038C23.2426 16.5734 23.3927 16.6752 23.5185 16.8034C23.7819 17.1113 23.9166 17.5089 23.8945 17.9135V30.3555C23.9166 30.7598 23.7819 31.1571 23.5185 31.4646C23.3972 31.5986 23.2479 31.7043 23.0812 31.7741C22.9145 31.844 22.7345 31.8763 22.5539 31.8688Z" fill="#F7F7F7"/>
<path d="M33.8076 32C32.7946 32.0112 31.7909 31.8063 30.8633 31.399C29.9927 31.014 29.2104 30.4543 28.565 29.7547C27.9133 29.0387 27.4073 28.2027 27.0753 27.2933C26.369 25.3025 26.369 23.1293 27.0753 21.1385C27.4076 20.2291 27.9136 19.393 28.565 18.6767C29.2084 17.9789 29.9869 17.4193 30.8533 17.0318C31.7839 16.6229 32.7913 16.4181 33.8076 16.4311C34.2638 16.4371 34.7191 16.4729 35.1706 16.5383C35.6781 16.6059 36.1759 16.733 36.6538 16.9168C37.0842 17.0779 37.4808 17.3177 37.8236 17.6237C38.0806 17.8653 38.2361 18.1955 38.2587 18.5475C38.2813 18.8995 38.1693 19.2469 37.9454 19.5193C37.847 19.6363 37.7231 19.7291 37.5833 19.7907C37.4434 19.8522 37.2912 19.8808 37.1386 19.8743C36.9508 19.8746 36.7646 19.8393 36.5899 19.7704C36.3863 19.6904 36.1604 19.6036 35.9133 19.5084C35.6233 19.4008 35.327 19.3107 35.0262 19.2386C34.6263 19.1492 34.2173 19.107 33.8076 19.1128C33.1516 19.0988 32.5022 19.2461 31.9165 19.5419C31.3887 19.8186 30.9284 20.2081 30.5682 20.6828C30.2006 21.1757 29.9261 21.7316 29.7584 22.3232C29.5758 22.9597 29.4848 23.6189 29.4881 24.281C29.4847 24.9292 29.5758 25.5745 29.7586 26.1965C29.9278 26.778 30.2077 27.3214 30.5829 27.7968C30.9518 28.2575 31.4148 28.6343 31.9408 28.9019C32.5207 29.1884 33.161 29.3314 33.8076 29.319C34.2281 29.3248 34.6474 29.2745 35.0545 29.1694C35.3738 29.0832 35.6863 28.9737 35.9896 28.8418C36.2501 28.727 36.489 28.621 36.706 28.5276C36.8832 28.4482 37.0749 28.4064 37.269 28.4048C37.4529 28.399 37.6349 28.444 37.7948 28.5351C37.9424 28.6219 38.0723 28.7359 38.1776 28.871C38.2746 28.9968 38.3513 29.1371 38.4048 29.2867C38.4491 29.4055 38.474 29.5307 38.4784 29.6575C38.4862 29.8668 38.4482 30.0752 38.367 30.2682C38.2857 30.4612 38.1632 30.634 38.0081 30.7746C37.6498 31.0992 37.2312 31.3502 36.7761 31.5134C36.2754 31.6982 35.7552 31.8255 35.2257 31.8927C34.7557 31.9583 34.2821 31.9941 33.8076 32Z" fill="#F7F7F7"/>
<path d="M47.2794 32C46.2666 32.0113 45.2631 31.8064 44.3358 31.399C43.4653 31.0137 42.6829 30.4541 42.037 29.7546C41.3852 29.0389 40.8795 28.2027 40.5483 27.293C39.8404 25.3025 39.8404 23.1288 40.5483 21.1382C40.8797 20.2287 41.3853 19.3925 42.0367 18.6764C42.6804 17.9789 43.4589 17.4193 44.3252 17.0315C45.2557 16.6227 46.2629 16.4179 47.2792 16.4308C48.2606 16.4216 49.233 16.6196 50.1326 17.0121C51.0322 17.4045 51.8389 17.9824 52.4998 18.7081C53.1508 19.4317 53.6603 20.2712 54.0016 21.1828C54.3651 22.1523 54.5482 23.1801 54.542 24.2154C54.5504 25.2648 54.3706 26.3072 54.011 27.2931C53.68 28.2011 53.1781 29.0373 52.5325 29.7564C51.8918 30.4564 51.1127 31.0158 50.2446 31.399C49.3102 31.8078 48.2993 32.0127 47.2794 32ZM47.2794 18.9814C46.6213 18.9677 45.9703 19.1195 45.3862 19.4229C44.8577 19.7077 44.3979 20.1046 44.039 20.5859C43.6703 21.0901 43.3962 21.657 43.2301 22.2591C43.0496 22.8955 42.9588 23.5539 42.9603 24.2154C42.9572 24.8793 43.0444 25.5405 43.2193 26.1809C43.3796 26.7807 43.6504 27.3453 44.0178 27.8458C44.3772 28.3268 44.8371 28.7236 45.3655 29.0087C45.9618 29.2991 46.6164 29.4501 47.2797 29.4501C47.9429 29.4501 48.5975 29.2991 49.1938 29.0087C49.7223 28.7238 50.1823 28.3269 50.5415 27.8458C50.909 27.3454 51.18 26.7807 51.3404 26.1809C51.5148 25.5404 51.6017 24.8792 51.599 24.2154C51.6003 23.554 51.5096 22.8957 51.3295 22.2594C51.1633 21.6571 50.8889 21.09 50.5197 20.5859C50.1608 20.1048 49.7012 19.7079 49.1729 19.4229C48.5887 19.1195 47.9376 18.9677 47.2794 18.9814Z" fill="#F7F7F7"/>
<path d="M70.2591 31.8688C69.8103 31.8823 69.3709 31.7382 69.0173 31.4615C68.6822 31.2058 68.4383 30.8489 68.3217 30.4438L65.747 21.877H65.4089L65.3173 22.0383L62.7923 30.4419C62.6753 30.8477 62.4309 31.2051 62.0953 31.4615C61.7419 31.7383 61.3026 31.8824 60.8539 31.8688C60.382 31.898 59.9176 31.7405 59.5608 31.4303C59.2455 31.1382 59.0224 30.7603 58.919 30.3431L56.1547 18.4606C56.1278 18.3269 56.1064 18.2108 56.093 18.1191C56.0779 18.004 56.0714 17.8879 56.0736 17.7719C56.0809 17.4605 56.2083 17.164 56.4291 16.9443C56.5517 16.8138 56.7015 16.7119 56.8679 16.6457C57.0343 16.5796 57.2133 16.5509 57.392 16.5616C57.5778 16.5461 57.7648 16.5696 57.941 16.6306C58.1172 16.6915 58.2787 16.7886 58.4153 16.9155C58.673 17.2079 58.845 17.5657 58.9125 17.9496L60.7986 27.381H61.1536L61.2456 27.2194L64.0754 17.6839C64.1642 17.3574 64.3579 17.0691 64.6267 16.8636C64.8968 16.6672 65.2222 16.5614 65.5561 16.5614C65.89 16.5614 66.2154 16.6672 66.4855 16.8636C66.7543 17.069 66.948 17.3573 67.0364 17.6839L69.9153 27.3808H70.2703L70.3503 27.1983L72.2002 17.9466C72.2674 17.5635 72.4395 17.2065 72.6974 16.9153C72.8337 16.7883 72.995 16.6912 73.1711 16.6303C73.3471 16.5693 73.5339 16.5458 73.7195 16.5613C73.8857 16.5539 74.0517 16.5793 74.208 16.6361C74.3644 16.693 74.5079 16.7801 74.6305 16.8926C74.7531 17.005 74.8523 17.1405 74.9224 17.2914C74.9924 17.4422 75.0321 17.6054 75.039 17.7716C75.0409 17.8872 75.0343 18.0028 75.0191 18.1174C75.0057 18.2108 74.9838 18.3272 74.9559 18.4676L72.1931 30.3463C72.0885 30.762 71.8657 31.1384 71.5516 31.4301C71.195 31.7401 70.7308 31.8977 70.2591 31.8688Z" fill="#F7F7F7"/>
<path d="M24.0002 13.2983C24.0001 13.5843 23.9153 13.8639 23.7563 14.1017C23.5974 14.3395 23.3715 14.5248 23.1072 14.6343C22.8429 14.7437 22.5522 14.7723 22.2716 14.7165C21.9911 14.6607 21.7334 14.5229 21.5312 14.3206C21.3289 14.1184 21.1912 13.8607 21.1354 13.5801C21.0796 13.2996 21.1083 13.0088 21.2178 12.7446C21.3272 12.4803 21.5126 12.2544 21.7504 12.0955C21.9883 11.9366 22.2679 11.8518 22.5539 11.8518C22.7438 11.8518 22.9319 11.8892 23.1074 11.9619C23.2829 12.0346 23.4423 12.1412 23.5766 12.2755C23.7109 12.4098 23.8175 12.5692 23.8901 12.7447C23.9628 12.9202 24.0002 13.1083 24.0002 13.2983Z" fill="#F7F7F7"/>
<path d="M25.9631 10.6527C25.8629 10.6528 25.7636 10.633 25.671 10.5947C25.5784 10.5563 25.4943 10.5 25.4235 10.429C25.0468 10.0522 24.5995 9.7533 24.1072 9.54939C23.615 9.34547 23.0874 9.24052 22.5546 9.24052C22.0218 9.24052 21.4942 9.34547 21.0019 9.54939C20.5096 9.7533 20.0624 10.0522 19.6856 10.429C19.6151 10.5016 19.5309 10.5594 19.4378 10.5991C19.3447 10.6389 19.2447 10.6597 19.1435 10.6604C19.0423 10.6612 18.9419 10.6418 18.8483 10.6034C18.7546 10.565 18.6696 10.5084 18.598 10.4368C18.5264 10.3652 18.4698 10.2802 18.4314 10.1865C18.393 10.0929 18.3736 9.99255 18.3744 9.89134C18.3751 9.79014 18.3959 9.69009 18.4357 9.59701C18.4754 9.50393 18.5332 9.41968 18.6058 9.34916C19.1231 8.8289 19.7384 8.41642 20.4162 8.13562C21.094 7.85482 21.8208 7.71127 22.5544 7.71328H22.5547C23.2882 7.71136 24.0149 7.85496 24.6926 8.13576C25.3703 8.41655 25.9855 8.82898 26.5027 9.34916C26.6095 9.45594 26.6822 9.59196 26.7116 9.74005C26.7411 9.88813 26.726 10.0416 26.6683 10.1811C26.6105 10.3206 26.5127 10.4399 26.3872 10.5238C26.2617 10.6077 26.1141 10.6526 25.9631 10.6527Z" fill="#F7F7F7"/>
<path d="M16.4179 7.92584C16.2669 7.92576 16.1193 7.88093 15.9938 7.797C15.8682 7.71306 15.7704 7.5938 15.7127 7.45429C15.6549 7.31478 15.6398 7.16127 15.6693 7.01318C15.6988 6.86509 15.7715 6.72906 15.8782 6.62228C16.7549 5.74551 17.7956 5.05001 18.9411 4.5755C20.0865 4.10098 21.3142 3.85675 22.5541 3.85675C23.7939 3.85675 25.0216 4.10098 26.1671 4.5755C27.3125 5.05001 28.3533 5.74551 29.2299 6.62228C29.3697 6.76617 29.4473 6.9593 29.4458 7.15991C29.4444 7.36052 29.364 7.55251 29.2222 7.69437C29.0803 7.83623 28.8883 7.91656 28.6877 7.91801C28.4871 7.91945 28.294 7.84189 28.1501 7.7021C27.4152 6.96717 26.5428 6.3842 25.5826 5.98646C24.6225 5.58872 23.5934 5.384 22.5541 5.384C21.5148 5.384 20.4857 5.58872 19.5255 5.98646C18.5653 6.3842 17.6929 6.96717 16.958 7.7021C16.8872 7.77317 16.803 7.82953 16.7103 7.86793C16.6176 7.90633 16.5182 7.92601 16.4179 7.92584Z" fill="#F7F7F7"/>
<path d="M13.9162 5.10572C13.7653 5.10564 13.6177 5.06083 13.4922 4.97694C13.3667 4.89304 13.2689 4.77383 13.2111 4.63437C13.1534 4.49491 13.1382 4.34145 13.1676 4.19338C13.197 4.04531 13.2696 3.90928 13.3763 3.80247C14.5814 2.59708 16.0122 1.64088 17.5869 0.98849C19.1616 0.336099 20.8493 0.000291419 22.5538 0.000244146C24.2583 0.000196872 25.9461 0.335911 27.5209 0.988215C29.0956 1.64052 30.5264 2.59663 31.7316 3.80196C31.8698 3.94616 31.946 4.13877 31.9439 4.3385C31.9417 4.53823 31.8615 4.72917 31.7202 4.87039C31.5789 5.01161 31.388 5.09187 31.1882 5.09395C30.9885 5.09603 30.7959 5.01977 30.6518 4.88152C29.5884 3.81804 28.3259 2.97445 26.9364 2.39892C25.547 1.82339 24.0578 1.52719 22.5538 1.52724C21.0499 1.52729 19.5607 1.82358 18.1713 2.3992C16.7819 2.97481 15.5195 3.81848 14.4561 4.88203C14.3853 4.95306 14.3012 5.00939 14.2085 5.04778C14.1159 5.08617 14.0165 5.10586 13.9162 5.10572Z" fill="#F7F7F7"/>
</g>
<defs>
<clipPath id="clip0">
<rect width="75.0392" height="32" fill="white"/>
</clipPath>
</defs>
</svg>
