<svg width="64" height="75" viewBox="0 0 64 75" fill="none" xmlns="http://www.w3.org/2000/svg">
<mask id="path-1-inside-1" fill="white">
<path fill-rule="evenodd" clip-rule="evenodd" d="M64 20.9944C64 23.7745 63.0082 26.3401 61.3343 28.4041C63.0082 30.4681 64 33.0337 64 35.8138C64 42.6343 58.0305 48.1634 50.6667 48.1634C48.6589 48.1634 46.7548 47.7524 45.047 47.0162C43.7753 52.6094 38.417 56.8081 32 56.8081C25.583 56.8081 20.2247 52.6094 18.953 47.0162C17.2452 47.7524 15.3411 48.1634 13.3333 48.1634C5.96954 48.1634 6.43764e-07 42.6343 0 35.8138C-2.62409e-07 33.0337 0.991847 30.4681 2.66568 28.4041C0.991852 26.3401 6.88768e-06 23.7745 6.88768e-06 20.9944C6.88768e-06 14.1739 5.96954 8.64477 13.3333 8.64477C15.3411 8.64477 17.2452 9.05581 18.953 9.79198C20.2247 4.19878 25.583 0 32 0C38.4171 0 43.7753 4.19878 45.0471 9.79198C46.7548 9.0558 48.6589 8.64477 50.6667 8.64477C58.0305 8.64477 64 14.1739 64 20.9944Z"/>
</mask>
<path fill-rule="evenodd" clip-rule="evenodd" d="M64 20.9944C64 23.7745 63.0082 26.3401 61.3343 28.4041C63.0082 30.4681 64 33.0337 64 35.8138C64 42.6343 58.0305 48.1634 50.6667 48.1634C48.6589 48.1634 46.7548 47.7524 45.047 47.0162C43.7753 52.6094 38.417 56.8081 32 56.8081C25.583 56.8081 20.2247 52.6094 18.953 47.0162C17.2452 47.7524 15.3411 48.1634 13.3333 48.1634C5.96954 48.1634 6.43764e-07 42.6343 0 35.8138C-2.62409e-07 33.0337 0.991847 30.4681 2.66568 28.4041C0.991852 26.3401 6.88768e-06 23.7745 6.88768e-06 20.9944C6.88768e-06 14.1739 5.96954 8.64477 13.3333 8.64477C15.3411 8.64477 17.2452 9.05581 18.953 9.79198C20.2247 4.19878 25.583 0 32 0C38.4171 0 43.7753 4.19878 45.0471 9.79198C46.7548 9.0558 48.6589 8.64477 50.6667 8.64477C58.0305 8.64477 64 14.1739 64 20.9944Z" fill="#FEFEFE"/>
<path d="M61.3343 28.4041L59.7809 27.1444L58.7593 28.4041L59.7809 29.6638L61.3343 28.4041ZM45.047 47.0162L45.8388 45.1796L43.6301 44.2274L43.0968 46.5728L45.047 47.0162ZM18.953 47.0162L20.9032 46.5728L20.3699 44.2274L18.1612 45.1796L18.953 47.0162ZM0 35.8138H2H0ZM2.66568 28.4041L4.21907 29.6638L5.24067 28.4041L4.21908 27.1443L2.66568 28.4041ZM18.953 9.79198L18.1612 11.6286L20.3699 12.5807L20.9032 10.2354L18.953 9.79198ZM45.0471 9.79198L43.0968 10.2354L43.6301 12.5807L45.8388 11.6286L45.0471 9.79198ZM62.8877 29.6638C64.8311 27.2675 66 24.2631 66 20.9944H62C62 23.2859 61.1853 25.4127 59.7809 27.1444L62.8877 29.6638ZM66 35.8138C66 32.545 64.831 29.5407 62.8877 27.1444L59.7809 29.6638C61.1853 31.3955 62 33.5223 62 35.8138H66ZM50.6667 50.1634C58.9879 50.1634 66 43.8805 66 35.8138H62C62 41.3882 57.073 46.1634 50.6667 46.1634V50.1634ZM44.2553 48.8528C46.2113 49.696 48.3847 50.1634 50.6667 50.1634V46.1634C48.9331 46.1634 47.2983 45.8087 45.8388 45.1796L44.2553 48.8528ZM32 58.8081C39.2689 58.8081 45.5009 54.0408 46.9972 47.4596L43.0968 46.5728C42.0497 51.1779 37.5652 54.8081 32 54.8081V58.8081ZM17.0028 47.4596C18.4991 54.0408 24.7311 58.8081 32 58.8081V54.8081C26.4348 54.8081 21.9503 51.1779 20.9032 46.5728L17.0028 47.4596ZM18.1612 45.1796C16.7017 45.8087 15.0669 46.1634 13.3333 46.1634V50.1634C15.6153 50.1634 17.7887 49.696 19.7447 48.8528L18.1612 45.1796ZM13.3333 46.1634C6.927 46.1634 2 41.3882 2 35.8138H-2C-2 43.8805 5.01208 50.1634 13.3333 50.1634V46.1634ZM2 35.8138C2 33.5223 2.81474 31.3955 4.21907 29.6638L1.11228 27.1443C-0.831041 29.5407 -2 32.545 -2 35.8138H2ZM-1.99999 20.9944C-1.99999 24.2631 -0.831038 27.2675 1.11228 29.6638L4.21908 27.1443C2.81474 25.4127 2.00001 23.2859 2.00001 20.9944H-1.99999ZM13.3333 6.64477C5.01208 6.64477 -1.99999 12.9277 -1.99999 20.9944H2.00001C2.00001 15.42 6.927 10.6448 13.3333 10.6448V6.64477ZM19.7447 7.95537C17.7887 7.11218 15.6153 6.64477 13.3333 6.64477V10.6448C15.0669 10.6448 16.7017 10.9994 18.1612 11.6286L19.7447 7.95537ZM32 -2C24.7311 -2 18.4991 2.76736 17.0027 9.34857L20.9032 10.2354C21.9503 5.63021 26.4348 2 32 2V-2ZM46.9973 9.34856C45.5009 2.76736 39.2689 -2 32 -2V2C37.5652 2 42.0498 5.6302 43.0968 10.2354L46.9973 9.34856ZM50.6667 6.64477C48.3847 6.64477 46.2113 7.11218 44.2553 7.95536L45.8388 11.6286C47.2983 10.9994 48.9331 10.6448 50.6667 10.6448V6.64477ZM66 20.9944C66 12.9277 58.9879 6.64477 50.6667 6.64477V10.6448C57.073 10.6448 62 15.42 62 20.9944H66Z" fill="#333333" mask="url(#path-1-inside-1)"/>
<path d="M30.8123 49.6937L27.1713 29.4415L40.4155 27.9221L39.4714 38.79L47.7292 38.312L46.9265 68.9502L39.6331 47.4038L30.8123 49.6937Z" fill="#3FD1FF" stroke="#333333" stroke-width="2" stroke-miterlimit="5.75877"/>
</svg>
