<svg width="94" height="154" viewBox="0 0 94 154" fill="none" xmlns="http://www.w3.org/2000/svg">
<mask id="path-1-outside-1" maskUnits="userSpaceOnUse" x="53.7427" y="117.035" width="23" height="37" fill="black">
<rect fill="white" x="53.7427" y="117.035" width="23" height="37"/>
<path fill-rule="evenodd" clip-rule="evenodd" d="M62.8341 147.914C62.5471 150.928 60.3964 151.46 58.8452 151.46C57.2939 151.46 55.7427 149.687 55.7427 147.25C55.7427 146.34 55.8044 141.652 55.8819 135.777C55.951 130.529 56.0327 124.333 56.0939 119.035H65.0573L74.0137 119.035C74.0749 124.333 74.1566 130.528 74.2257 135.777C74.3031 141.652 74.3649 146.34 74.3649 147.25C74.3649 149.687 72.8136 151.46 71.2624 151.46C69.7111 151.46 67.5605 150.928 67.2734 147.914C67.1931 147.07 67.0808 145.003 66.9346 142.311C66.5522 135.27 65.9376 123.953 65.0538 119.055C64.17 123.953 63.5554 135.27 63.173 142.311C63.0268 145.003 62.9145 147.07 62.8341 147.914Z"/>
</mask>
<path fill-rule="evenodd" clip-rule="evenodd" d="M62.8341 147.914C62.5471 150.928 60.3964 151.46 58.8452 151.46C57.2939 151.46 55.7427 149.687 55.7427 147.25C55.7427 146.34 55.8044 141.652 55.8819 135.777C55.951 130.529 56.0327 124.333 56.0939 119.035H65.0573L74.0137 119.035C74.0749 124.333 74.1566 130.528 74.2257 135.777C74.3031 141.652 74.3649 146.34 74.3649 147.25C74.3649 149.687 72.8136 151.46 71.2624 151.46C69.7111 151.46 67.5605 150.928 67.2734 147.914C67.1931 147.07 67.0808 145.003 66.9346 142.311C66.5522 135.27 65.9376 123.953 65.0538 119.055C64.17 123.953 63.5554 135.27 63.173 142.311C63.0268 145.003 62.9145 147.07 62.8341 147.914Z" fill="#FEFEFE"/>
<path d="M62.8341 147.914L64.8251 148.104L62.8341 147.914ZM55.8819 135.777L53.882 135.75V135.75L55.8819 135.777ZM56.0939 119.035V117.035H54.1169L54.094 119.012L56.0939 119.035ZM65.0573 119.035L65.0573 117.035H65.0573V119.035ZM74.0137 119.035L76.0135 119.012L75.9907 117.035L74.0137 117.035L74.0137 119.035ZM74.2257 135.777L76.2255 135.75V135.75L74.2257 135.777ZM67.2734 147.914L65.2825 148.104V148.104L67.2734 147.914ZM66.9346 142.311L64.9375 142.419L66.9346 142.311ZM65.0538 119.055L67.022 118.7L63.0856 118.7L65.0538 119.055ZM63.173 142.311L65.1701 142.419L63.173 142.311ZM58.8452 153.46C59.8022 153.46 61.1841 153.304 62.4202 152.484C63.7563 151.596 64.6324 150.127 64.8251 148.104L60.8431 147.725C60.7488 148.715 60.4061 149.019 60.2073 149.151C59.9085 149.35 59.4394 149.46 58.8452 149.46V153.46ZM53.7427 147.25C53.7427 148.888 54.2637 150.379 55.1335 151.497C55.9841 152.591 57.293 153.46 58.8452 153.46V149.46C58.8434 149.46 58.7898 149.46 58.6857 149.401C58.5797 149.342 58.4375 149.229 58.2909 149.041C57.9972 148.663 57.7427 148.049 57.7427 147.25H53.7427ZM53.882 135.75C53.8048 141.612 53.7427 146.322 53.7427 147.25H57.7427C57.7427 146.357 57.8041 141.692 57.8817 135.803L53.882 135.75ZM54.094 119.012C54.0328 124.308 53.9512 130.502 53.882 135.75L57.8817 135.803C57.9508 130.555 58.0325 124.358 58.0938 119.058L54.094 119.012ZM65.0573 117.035H56.0939V121.035H65.0573V117.035ZM65.0573 121.035L74.0137 121.035L74.0137 117.035L65.0573 117.035L65.0573 121.035ZM72.0138 119.058C72.0751 124.358 72.1567 130.555 72.2259 135.803L76.2255 135.75C76.1564 130.502 76.0748 124.308 76.0135 119.012L72.0138 119.058ZM72.2259 135.803C72.3035 141.692 72.3649 146.357 72.3649 147.25H76.3649C76.3649 146.322 76.3028 141.612 76.2255 135.75L72.2259 135.803ZM72.3649 147.25C72.3649 148.049 72.1103 148.664 71.8167 149.041C71.6701 149.23 71.5279 149.342 71.4219 149.401C71.3178 149.46 71.2642 149.46 71.2624 149.46V153.46C72.8146 153.46 74.1234 152.591 74.9741 151.497C75.8438 150.379 76.3649 148.888 76.3649 147.25H72.3649ZM71.2624 149.46C70.6682 149.46 70.1991 149.35 69.9003 149.151C69.7015 149.019 69.3588 148.715 69.2644 147.725L65.2825 148.104C65.4752 150.127 66.3513 151.596 67.6874 152.484C68.9235 153.305 70.3053 153.46 71.2624 153.46V149.46ZM69.2644 147.725C69.1891 146.933 69.0796 144.926 68.9316 142.202L64.9375 142.419C65.082 145.08 65.1971 147.207 65.2825 148.104L69.2644 147.725ZM68.9316 142.202C68.5534 135.239 67.934 123.754 67.022 118.7L63.0856 119.41C63.9411 124.151 64.5509 135.3 64.9375 142.419L68.9316 142.202ZM65.1701 142.419C65.5567 135.3 66.1665 124.151 67.022 119.41L63.0856 118.7C62.1736 123.754 61.5541 135.239 61.176 142.202L65.1701 142.419ZM64.8251 148.104C64.9105 147.207 65.0256 145.08 65.1701 142.419L61.176 142.202C61.028 144.926 60.9185 146.933 60.8431 147.725L64.8251 148.104Z" fill="#333333" mask="url(#path-1-outside-1)"/>
<path d="M78.1188 96.8647C78.0149 96.4348 77.9119 96.0082 77.81 95.586C79.22 97.2772 80.511 99.179 81.6108 100.983C83.3275 103.799 84.5387 106.309 84.971 107.261C85.6182 108.684 86.5823 109.571 87.6883 109.953C88.7757 110.328 89.8853 110.173 90.7607 109.736C92.6855 108.773 93.5832 105.932 92.583 103.181C92.0939 101.836 90.8618 99.7993 89.4639 97.6339C88.7274 96.493 87.8923 95.2382 87.0619 93.9906C86.3296 92.8902 85.601 91.7954 84.9469 90.7892C83.8198 89.0551 81.6349 86.0102 79.1425 83.0418C76.6727 80.1004 73.8096 77.1224 71.3274 75.6295C69.9514 74.8018 67.8059 73.7136 65.2718 73.7136C62.0323 73.7135 59.972 74.747 58.4925 76.0375C57.7735 76.6648 57.2092 77.3376 56.7381 77.9134C56.6954 77.9657 56.6538 78.0167 56.6131 78.0665C56.1826 78.5936 55.8602 78.9883 55.5274 79.2796C55.3116 79.4684 55.0744 79.679 54.8202 79.9048C54.0014 80.6318 53.0069 81.5149 51.9897 82.3245C51.3264 82.8525 50.6744 83.3319 50.0797 83.7016C49.4685 84.0815 48.9878 84.3008 48.6559 84.3746C48.2894 84.456 47.5707 84.4896 46.5668 84.4687C45.5952 84.4485 44.4519 84.3807 43.2931 84.2979C42.5815 84.2471 41.8556 84.1897 41.1621 84.1348C39.6472 84.0151 38.2872 83.9075 37.5708 83.9075C34.9807 83.9075 33.2467 85.9508 33.2467 88.2316C33.2467 89.354 33.6111 90.3069 34.4088 91.0248C35.1592 91.7002 36.1981 92.0794 37.3747 92.3147C38.5633 92.5525 41.0112 92.7754 43.51 92.8862C46.0064 92.9968 48.6917 93.0019 50.343 92.7674C51.3828 92.6198 52.5081 92.2746 53.6357 91.8397C53.2578 93.4158 52.8482 95.1119 52.4249 96.8648L52.4239 96.8688C51.2338 101.797 49.9354 107.174 48.9343 111.569C48.4338 113.767 48.0059 115.727 47.7027 117.266C47.4083 118.761 47.208 119.968 47.208 120.586C47.208 122.084 48.501 122.972 49.7006 123.494C50.9926 124.057 52.7136 124.439 54.529 124.706C58.1801 125.243 62.5045 125.354 65.2718 125.354C68.0392 125.354 72.3635 125.243 76.0146 124.706C77.8301 124.439 79.551 124.057 80.843 123.494C82.0426 122.972 83.3356 122.084 83.3356 120.586C83.3356 119.968 83.1354 118.761 82.8409 117.266C82.5377 115.727 82.1098 113.767 81.6093 111.569C80.6089 107.176 79.3113 101.803 78.1218 96.8774L78.1218 96.8773L78.1197 96.8687L78.1188 96.8649L78.1188 96.8647Z" fill="#FEFEFE" stroke="#333333" stroke-width="2"/>
<path d="M30.0665 121.086C30.1294 120.607 30.1933 120.163 30.2578 119.759C30.3224 120.163 30.3862 120.607 30.4491 121.086C30.7912 123.693 31.0887 127.224 31.3433 130.894C31.6183 134.857 31.844 139.005 32.0212 142.262C32.1695 144.987 32.2838 147.088 32.3648 147.939C32.5329 149.704 33.2757 150.882 34.3275 151.58C35.3293 152.246 36.4829 152.39 37.3493 152.39C38.5132 152.39 39.5554 151.733 40.2716 150.813C40.9973 149.88 41.4518 148.608 41.4518 147.179C41.4518 146.262 41.3898 141.559 41.3123 135.677C41.2861 133.687 41.2581 131.562 41.2301 129.403C41.1192 120.849 41.0086 111.754 41.0086 108.328V80.617C42.181 80.4879 43.7184 80.3982 45.2087 80.3112C46.1379 80.2569 47.0487 80.2037 47.8415 80.1427C49.4748 80.0171 51.5877 79.283 53.3073 78.0461C55.0273 76.8089 56.5211 74.9375 56.5211 72.4974C56.5211 68.8415 54.6986 65.5745 52.5884 62.951C50.5695 60.441 48.1939 58.4078 46.6424 57.0799C46.5667 57.0151 46.4929 56.9519 46.4212 56.8905C45.0835 55.7439 43.5327 55.2151 42.1518 55.1818C40.8231 55.1497 39.4426 55.5878 38.7333 56.6517C37.6064 58.3422 37.311 61.6371 40.3138 63.7819C41.6963 64.7694 43.7486 66.5505 45.3079 68.2635C46.0915 69.1243 46.7091 69.9231 47.0617 70.5643C47.2141 70.8413 47.2951 71.0503 47.3307 71.1944C47.2623 71.2082 47.1749 71.2214 47.0658 71.2316C46.6418 71.271 46.0455 71.251 45.3087 71.1708C43.8456 71.0116 42.0036 70.6357 40.2511 70.1976C39.6103 70.0374 39.0416 69.876 38.4944 69.7207C36.3892 69.1233 34.6032 68.6164 30.2578 68.6164C25.9125 68.6164 24.1264 69.1233 22.0212 69.7207C21.4741 69.876 20.9053 70.0374 20.2645 70.1976C18.512 70.6357 16.67 71.0117 15.2069 71.1709C14.4702 71.251 13.8738 71.271 13.4498 71.2316C13.3407 71.2215 13.2533 71.2083 13.185 71.1944C13.2205 71.0503 13.3015 70.8414 13.4539 70.5643C13.8065 69.9231 14.4241 69.1243 15.2077 68.2635C16.767 66.5506 18.8193 64.7695 20.2019 63.7819C23.2046 61.6371 22.9093 58.3422 21.7823 56.6517C21.0731 55.5878 19.6925 55.1498 18.3638 55.1818C16.983 55.2151 15.4322 55.7439 14.0945 56.8905C14.0228 56.9519 13.949 57.0151 13.8732 57.0799C12.3218 58.4078 9.94611 60.441 7.92722 62.951C5.817 65.5745 3.99451 68.8415 3.99451 72.4974C3.99451 74.9375 5.48832 76.8089 7.20837 78.0461C8.92793 79.283 11.0408 80.0171 12.6741 80.1428C13.4669 80.2038 14.3778 80.2569 15.3069 80.3112C16.7973 80.3982 18.3346 80.488 19.5071 80.6171V108.328C19.5071 111.754 19.3964 120.849 19.2855 129.403C19.2576 131.562 19.2296 133.687 19.2033 135.677C19.1258 141.559 19.0638 146.262 19.0638 147.179C19.0638 148.608 19.5183 149.88 20.244 150.813C20.9602 151.734 22.0024 152.39 23.1664 152.39C24.0327 152.39 25.1864 152.246 26.1881 151.58C27.2399 150.882 27.9827 149.704 28.1508 147.939C28.2318 147.089 28.3461 144.987 28.4944 142.262C28.6716 139.005 28.8973 134.857 29.1723 130.894C29.4269 127.224 29.7244 123.693 30.0665 121.086ZM47.3523 71.3456C47.3523 71.3455 47.3523 71.3443 47.3526 71.3421L47.3523 71.3456ZM47.5022 71.145C47.5052 71.1432 47.5068 71.1425 47.5068 71.1425C47.5069 71.1426 47.5054 71.1434 47.5022 71.145ZM13.0088 71.1426C13.0089 71.1425 13.0105 71.1433 13.0134 71.145C13.0102 71.1434 13.0087 71.1426 13.0088 71.1426ZM13.163 71.3421C13.1633 71.3444 13.1634 71.3455 13.1633 71.3456L13.163 71.3421Z" fill="#FEFEFE" stroke="#333333" stroke-width="2"/>
<path d="M42.2547 71.1699C42.8761 68.5785 40.8318 66.0884 38.3845 65.7663C35.9372 65.4441 33.3181 67.3202 33.2476 69.9841L33.2437 70.0421L33.2282 70.2707C33.2148 70.4685 33.1958 70.7528 33.1729 71.0996C33.127 71.793 33.0658 72.7365 33.0042 73.7361C32.8819 75.7193 32.755 77.9712 32.749 78.8987C32.742 79.9684 33.0244 80.955 33.6146 81.7242C34.2127 82.5037 35.079 82.9948 36.0986 83.129C37.1183 83.2632 38.0821 83.0131 38.8617 82.415C39.6308 81.8248 40.159 80.9449 40.4291 79.9098C40.6633 79.0123 41.1235 76.8043 41.5187 74.8571C41.7179 73.8755 41.903 72.9484 42.0382 72.2667C42.1058 71.9258 42.161 71.6462 42.1993 71.4518L42.2435 71.227L42.2547 71.1699Z" fill="#FEFEFE" stroke="#333333" stroke-width="2"/>
<path d="M18.932 71.1699C18.3106 68.5785 20.3548 66.0885 22.8022 65.7663C25.2495 65.4441 27.8686 67.3202 27.939 69.9841L27.943 70.0421L27.9584 70.2707C27.9718 70.4685 27.9909 70.7528 28.0138 71.0996C28.0596 71.793 28.1208 72.7365 28.1825 73.7361C28.3047 75.7193 28.4316 77.9712 28.4377 78.8987C28.4447 79.9684 28.1623 80.955 27.5721 81.7242C26.9739 82.5037 26.1076 82.9948 25.088 83.129C24.0684 83.2632 23.1045 83.0131 22.325 82.415C21.5558 81.8248 21.0277 80.9449 20.7576 79.9098C20.5234 79.0123 20.0631 76.8043 19.6679 74.8571C19.4687 73.8755 19.2837 72.9484 19.1485 72.2667C19.0809 71.9258 19.0257 71.6462 18.9874 71.4518L18.9432 71.227L18.932 71.1699Z" fill="#FEFEFE" stroke="#333333" stroke-width="2"/>
<path d="M30.4794 50.8935H31.4794V50.8637C40.1334 50.3467 46.992 43.1648 46.992 34.3809C46.992 33.3804 46.9029 32.3998 46.7319 31.4469C46.4217 29.7178 44.7066 28.8305 43.1574 29.1746C41.4322 29.5578 40.5115 31.2189 40.5556 32.7566C40.5584 32.8545 40.5598 32.9527 40.5598 33.0513C40.5598 38.6185 36.0467 43.1316 30.4794 43.1316C24.9122 43.1316 20.399 38.6185 20.399 33.0513C20.399 32.9527 20.4004 32.8545 20.4032 32.7566C20.4473 31.2189 19.5266 29.5578 17.8015 29.1746C16.2522 28.8305 14.5371 29.7178 14.2269 31.4469C14.056 32.3998 13.9669 33.3804 13.9669 34.3809C13.9669 43.1648 20.8254 50.3467 29.4794 50.8637V50.8935H30.4794Z" fill="#FEFEFE" stroke="#333333" stroke-width="2"/>
<circle cx="30.701" cy="35.9322" r="7.86985" fill="#FEFEFE" stroke="#333333" stroke-width="2"/>
<circle cx="30.4794" cy="57.8714" r="11.194" fill="#FEFEFE" stroke="#333333" stroke-width="2"/>
<circle cx="65.4934" cy="64.0764" r="10.3075" fill="#FEFEFE" stroke="#333333" stroke-width="2"/>
<mask id="path-11-outside-2" maskUnits="userSpaceOnUse" x="0.267949" y="-0.389436" width="36.8205" height="43.775" fill="black">
<rect fill="white" x="0.267949" y="-0.389436" width="36.8205" height="43.775"/>
<path fill-rule="evenodd" clip-rule="evenodd" d="M13.5015 29.0016C9.21733 25.6773 8.90305 22.4291 11.5855 17.7831C14.2679 13.137 17.238 11.7851 22.2591 13.8331C22.4397 13.4287 22.614 13.0353 22.7827 12.6546C24.543 8.68303 25.6886 6.09821 26.9302 6.81506C28.9834 8.00046 29.3386 17.0826 24.597 25.2953C19.8554 33.508 11.8125 37.7414 9.75927 36.556C8.51767 35.8391 10.1834 33.5546 12.7428 30.0444C12.9881 29.708 13.2416 29.3603 13.5015 29.0016Z"/>
</mask>
<path fill-rule="evenodd" clip-rule="evenodd" d="M13.5015 29.0016C9.21733 25.6773 8.90305 22.4291 11.5855 17.7831C14.2679 13.137 17.238 11.7851 22.2591 13.8331C22.4397 13.4287 22.614 13.0353 22.7827 12.6546C24.543 8.68303 25.6886 6.09821 26.9302 6.81506C28.9834 8.00046 29.3386 17.0826 24.597 25.2953C19.8554 33.508 11.8125 37.7414 9.75927 36.556C8.51767 35.8391 10.1834 33.5546 12.7428 30.0444C12.9881 29.708 13.2416 29.3603 13.5015 29.0016Z" fill="#3FD1FF"/>
<path d="M13.5015 29.0016L15.1209 30.1754L16.2568 28.6081L14.7276 27.4215L13.5015 29.0016ZM22.2591 13.8331L21.5037 15.685L23.2959 16.416L24.0852 14.6487L22.2591 13.8331ZM22.7827 12.6546L20.9543 11.8443L20.9543 11.8443L22.7827 12.6546ZM24.597 25.2953L26.3291 26.2953L24.597 25.2953ZM9.75927 36.556L8.75927 38.288L8.75927 38.288L9.75927 36.556ZM12.7428 30.0444L14.3588 31.2227L14.3588 31.2227L12.7428 30.0444ZM14.7276 27.4215C12.796 25.9227 12.0778 24.6871 11.9077 23.5833C11.7307 22.4354 12.0679 20.9474 13.3175 18.7831L9.8534 16.7831C8.4206 19.2647 7.57374 21.7239 7.95437 24.1927C8.34177 26.7055 9.92288 28.7563 12.2754 30.5817L14.7276 27.4215ZM13.3175 18.7831C14.5671 16.6187 15.6871 15.5827 16.7697 15.162C17.8107 14.7575 19.2398 14.7616 21.5037 15.685L23.0144 11.9813C20.2572 10.8566 17.6907 10.5127 15.3208 11.4336C12.9924 12.3384 11.2862 14.3014 9.8534 16.7831L13.3175 18.7831ZM24.0852 14.6487C24.2672 14.2413 24.4426 13.8453 24.6112 13.465L20.9543 11.8443C20.7854 12.2253 20.6122 12.6161 20.4329 13.0176L24.0852 14.6487ZM24.6112 13.465C25.5189 11.417 26.1785 9.94138 26.7444 9.04069C27.0395 8.57105 27.1675 8.49635 27.1049 8.53751C27.0441 8.57755 26.8676 8.67576 26.5955 8.69318C26.3072 8.71163 26.0724 8.6292 25.9302 8.54711L27.9302 5.083C27.4776 4.8217 26.9353 4.66324 26.3399 4.70135C25.7606 4.73844 25.2772 4.952 24.9068 5.19562C24.2252 5.64393 23.724 6.32926 23.3575 6.91267C22.6001 8.11808 21.8068 9.92068 20.9543 11.8443L24.6112 13.465ZM25.9302 8.54711C25.7346 8.43418 25.7395 8.34363 25.8404 8.5371C25.9308 8.71052 26.0448 9.01262 26.1438 9.47054C26.3413 10.3837 26.4308 11.6882 26.3168 13.2768C26.0894 16.445 25.0725 20.4717 22.865 24.2953L26.3291 26.2953C28.8631 21.9062 30.0394 17.2854 30.3065 13.5631C30.4398 11.7064 30.3518 10.0048 30.0534 8.625C29.9045 7.93645 29.6909 7.27037 29.3874 6.68814C29.0944 6.12596 28.6391 5.49228 27.9302 5.083L25.9302 8.54711ZM22.865 24.2953C20.6574 28.1189 17.6787 31.0129 15.0486 32.7939C13.7298 33.6869 12.5554 34.2617 11.6658 34.5472C11.2197 34.6904 10.9011 34.7427 10.7057 34.7512C10.4877 34.7606 10.5637 34.711 10.7593 34.8239L8.75927 38.288C9.46816 38.6973 10.2446 38.7748 10.878 38.7474C11.534 38.7192 12.2176 38.5711 12.8883 38.3558C14.2325 37.9243 15.7501 37.1497 17.2914 36.106C20.3815 34.0135 23.795 30.6844 26.3291 26.2953L22.865 24.2953ZM10.7593 34.8239C10.9015 34.906 11.0903 35.0682 11.2184 35.327C11.3394 35.5714 11.3426 35.7733 11.3383 35.8461C11.334 35.9209 11.3347 35.7726 11.5939 35.2823C12.0909 34.3419 13.039 33.0328 14.3588 31.2227L11.1267 28.8661C9.88713 30.5662 8.72269 32.1545 8.05745 33.4131C7.73548 34.0223 7.39257 34.799 7.34512 35.6134C7.31933 36.056 7.37609 36.5814 7.63362 37.1016C7.89832 37.6363 8.30668 38.0267 8.75927 38.288L10.7593 34.8239ZM14.3588 31.2227C14.6039 30.8866 14.859 30.5366 15.1209 30.1754L11.8821 27.8279C11.6241 28.1839 11.3723 28.5293 11.1267 28.8661L14.3588 31.2227Z" fill="#333333" mask="url(#path-11-outside-2)"/>
</svg>
