<svg width="52" height="94" viewBox="0 0 52 94" fill="none" xmlns="http://www.w3.org/2000/svg">
<path d="M41 2H11C6.02944 2 2 5.99106 2 10.9143V82.2286C2 87.1518 6.02944 91.1429 11 91.1429H41C45.9706 91.1429 50 87.1518 50 82.2286V10.9143C50 5.99106 45.9706 2 41 2Z" stroke="#FEFEFE" stroke-width="4" stroke-linecap="round" stroke-linejoin="round"/>
<path d="M10.9142 2H15.44C15.8401 2 16.2238 2.16857 16.5067 2.46863C16.7896 2.76869 16.9485 3.17565 16.9485 3.6C16.9485 4.44869 17.2664 5.26263 17.8322 5.86274C18.3981 6.46286 19.1655 6.8 19.9657 6.8H32.0342C32.8344 6.8 33.6019 6.46286 34.1677 5.86274C34.7335 5.26263 35.0514 4.44869 35.0514 3.6C35.0514 3.17565 35.2103 2.76869 35.4932 2.46863C35.7761 2.16857 36.1599 2 36.56 2H41.0857" stroke="#FEFEFE" stroke-width="4" stroke-linecap="round" stroke-linejoin="round"/>
<path d="M27.3282 46.8381L27.3309 46.7822L27.3267 46.7884C27.3291 46.5824 27.2929 46.3776 27.2198 46.1845C27.1402 45.9745 27.0187 45.7826 26.8624 45.6205C26.7062 45.4584 26.5185 45.3295 26.3107 45.2414C26.1029 45.1533 25.8793 45.108 25.6533 45.1081L25.6373 45.1081L25.6372 45.1081C25.4128 45.1103 25.1911 45.1572 24.9854 45.2463C24.7797 45.3353 24.5941 45.4646 24.4397 45.6263C24.2853 45.7881 24.1653 45.9791 24.0869 46.188C24.0084 46.3968 23.9731 46.6192 23.983 46.8418L23.983 46.8419L24.4205 56.0715C24.4205 56.0717 24.4205 56.0718 24.4205 56.0719C24.4206 56.3971 24.5507 56.709 24.7823 56.939C25.0139 57.169 25.3281 57.2982 25.6556 57.2982C25.9832 57.2982 26.2973 57.169 26.529 56.939C26.7605 56.709 26.8907 56.3971 26.8908 56.0719C26.8908 56.0718 26.8908 56.0717 26.8908 56.0715L27.3282 46.8381ZM27.7905 38.2525L27.8042 38.2451L27.7905 38.2525L40.7805 62.2083C40.9793 62.575 41.0788 62.9865 41.0695 63.4028C41.0601 63.8191 40.9422 64.2258 40.7271 64.5833C40.5121 64.9407 40.2073 65.2366 39.8426 65.4421C39.4779 65.6476 39.0657 65.7556 38.6464 65.7556H12.6641C12.2451 65.755 11.8334 65.6465 11.4692 65.4407C11.105 65.235 10.8008 64.939 10.5862 64.5816C10.3716 64.2243 10.254 63.8178 10.2448 63.4019C10.2356 62.9859 10.3352 62.5747 10.5338 62.2083L23.523 38.2525C24.4386 36.5649 26.8757 36.5649 27.7905 38.2525ZM24.8016 61.8203C25.0549 61.9883 25.3526 62.078 25.6572 62.078C26.0655 62.078 26.4572 61.9169 26.7461 61.6301C27.0349 61.3433 27.1972 60.9543 27.1972 60.5486C27.1972 60.2461 27.1068 59.9504 26.9376 59.6988C26.7684 59.4473 26.5278 59.2513 26.2464 59.1356C25.9651 59.0198 25.6554 58.9895 25.3567 59.0486C25.058 59.1076 24.7836 59.2532 24.5682 59.4671C24.3529 59.681 24.2062 59.9535 24.1467 60.2502C24.0873 60.5469 24.1178 60.8544 24.2344 61.1339C24.351 61.4134 24.5484 61.6522 24.8016 61.8203Z" fill="#3FD1FF" stroke="#FEFEFE" stroke-width="0.03125"/>
</svg>
