<svg width="204" height="121" viewBox="0 0 204 121" fill="none" xmlns="http://www.w3.org/2000/svg">
<path d="M56.6416 48.1211H54.6416V50.1211V73.5129C54.6416 78.7686 50.381 83.0291 45.1253 83.0291H43.1253V85.0291V100.163C43.1253 110.104 51.1842 118.163 61.1253 118.163H145.643C155.584 118.163 163.643 110.104 163.643 100.163V66.1599C163.643 56.2251 155.59 48.1211 145.643 48.1211H56.6416Z" fill="#FEFEFE" stroke="#333333" stroke-width="4"/>
<mask id="path-2-outside-1" maskUnits="userSpaceOnUse" x="0.5" y="37.3279" width="89" height="62" fill="black">
<rect fill="white" x="0.5" y="37.3279" width="89" height="62"/>
<path fill-rule="evenodd" clip-rule="evenodd" d="M62.1075 57.197C70.4444 57.197 77.2028 50.4386 77.2028 42.1017C77.2028 40.7986 77.0377 39.534 76.7273 38.3279C75.0515 44.8386 69.1413 49.6494 62.1075 49.6494L62.1075 57.197ZM28.1429 49.6494H62.1075V60.4029C64.671 58.3944 67.9005 57.1971 71.4096 57.1971C76.997 57.1971 81.8754 60.2327 84.4855 64.7447C81.8754 69.2567 76.997 72.2924 71.4096 72.2924C67.9005 72.2924 64.671 71.095 62.1075 69.0865V87.3878C62.1075 91.5562 58.7282 94.9354 54.5598 94.9354H35.6906C31.5221 94.9354 28.1429 91.5562 28.1429 87.3878V68.8742C25.5387 71.0103 22.207 72.2924 18.5759 72.2924C12.9885 72.2924 8.11006 69.2567 5.5 64.7447C8.11006 60.2327 12.9885 57.1971 18.5759 57.1971C22.207 57.1971 25.5387 58.4791 28.1429 60.6153L28.1429 57.197C19.806 57.197 13.0475 50.4386 13.0475 42.1017C13.0475 40.7986 13.2127 39.534 13.5231 38.3279C15.1989 44.8386 21.1091 49.6494 28.1429 49.6494ZM58.3336 72.2924C58.3336 75.4188 55.7992 77.9532 52.6729 77.9532C49.5465 77.9532 47.0121 75.4188 47.0121 72.2924C47.0121 69.1661 49.5465 66.6316 52.6729 66.6316C55.7992 66.6316 58.3336 69.1661 58.3336 72.2924ZM37.5775 77.9532C40.7039 77.9532 43.2383 75.4188 43.2383 72.2924C43.2383 69.1661 40.7039 66.6316 37.5775 66.6316C34.4512 66.6316 31.9168 69.1661 31.9168 72.2924C31.9168 75.4188 34.4512 77.9532 37.5775 77.9532Z"/>
</mask>
<path fill-rule="evenodd" clip-rule="evenodd" d="M62.1075 57.197C70.4444 57.197 77.2028 50.4386 77.2028 42.1017C77.2028 40.7986 77.0377 39.534 76.7273 38.3279C75.0515 44.8386 69.1413 49.6494 62.1075 49.6494L62.1075 57.197ZM28.1429 49.6494H62.1075V60.4029C64.671 58.3944 67.9005 57.1971 71.4096 57.1971C76.997 57.1971 81.8754 60.2327 84.4855 64.7447C81.8754 69.2567 76.997 72.2924 71.4096 72.2924C67.9005 72.2924 64.671 71.095 62.1075 69.0865V87.3878C62.1075 91.5562 58.7282 94.9354 54.5598 94.9354H35.6906C31.5221 94.9354 28.1429 91.5562 28.1429 87.3878V68.8742C25.5387 71.0103 22.207 72.2924 18.5759 72.2924C12.9885 72.2924 8.11006 69.2567 5.5 64.7447C8.11006 60.2327 12.9885 57.1971 18.5759 57.1971C22.207 57.1971 25.5387 58.4791 28.1429 60.6153L28.1429 57.197C19.806 57.197 13.0475 50.4386 13.0475 42.1017C13.0475 40.7986 13.2127 39.534 13.5231 38.3279C15.1989 44.8386 21.1091 49.6494 28.1429 49.6494ZM58.3336 72.2924C58.3336 75.4188 55.7992 77.9532 52.6729 77.9532C49.5465 77.9532 47.0121 75.4188 47.0121 72.2924C47.0121 69.1661 49.5465 66.6316 52.6729 66.6316C55.7992 66.6316 58.3336 69.1661 58.3336 72.2924ZM37.5775 77.9532C40.7039 77.9532 43.2383 75.4188 43.2383 72.2924C43.2383 69.1661 40.7039 66.6316 37.5775 66.6316C34.4512 66.6316 31.9168 69.1661 31.9168 72.2924C31.9168 75.4188 34.4512 77.9532 37.5775 77.9532Z" fill="#FEFEFE"/>
<path d="M62.1075 57.197L58.1075 57.197L58.1075 61.197H62.1075V57.197ZM76.7273 38.3279L80.601 37.3308L72.8535 37.3308L76.7273 38.3279ZM62.1075 49.6494V45.6494H58.1075L58.1075 49.6494L62.1075 49.6494ZM62.1075 49.6494H66.1075V45.6494H62.1075V49.6494ZM28.1429 49.6494V45.6494H28.1429L28.1429 49.6494ZM62.1075 60.4029H58.1075V68.6184L64.5744 63.5516L62.1075 60.4029ZM84.4855 64.7447L87.9479 66.7476L89.1065 64.7447L87.9479 62.7418L84.4855 64.7447ZM62.1075 69.0865L64.5744 65.9378L58.1075 60.8711V69.0865H62.1075ZM28.1429 68.8742H32.1429V60.4196L25.6061 65.7815L28.1429 68.8742ZM5.5 64.7447L2.03758 62.7418L0.878959 64.7447L2.03758 66.7476L5.5 64.7447ZM28.1429 60.6153L25.6061 63.708L32.1429 69.0699L32.1429 60.6153L28.1429 60.6153ZM28.1429 57.197L32.1429 57.197L32.1429 53.197H28.1429V57.197ZM13.5231 38.3279L17.3969 37.3308L9.64937 37.3308L13.5231 38.3279ZM73.2028 42.1017C73.2028 48.2295 68.2353 53.197 62.1075 53.197V61.197C72.6535 61.197 81.2028 52.6478 81.2028 42.1017H73.2028ZM72.8535 39.3249C73.0808 40.2081 73.2028 41.1377 73.2028 42.1017H81.2028C81.2028 40.4594 80.9946 38.86 80.601 37.3308L72.8535 39.3249ZM62.1075 53.6494C71.0106 53.6494 78.4814 47.56 80.601 39.3249L72.8535 37.3308C71.6216 42.1172 67.272 45.6494 62.1075 45.6494V53.6494ZM66.1075 57.1971L66.1075 49.6494L58.1075 49.6494L58.1075 57.197L66.1075 57.1971ZM62.1075 45.6494H28.1429V53.6494H62.1075V45.6494ZM66.1075 60.4029V49.6494H58.1075V60.4029H66.1075ZM71.4096 53.1971C66.9748 53.1971 62.883 54.7138 59.6405 57.2543L64.5744 63.5516C66.459 62.0751 68.8262 61.1971 71.4096 61.1971V53.1971ZM87.9479 62.7418C84.6523 57.0446 78.4826 53.1971 71.4096 53.1971V61.1971C75.5114 61.1971 79.0986 63.4208 81.023 66.7476L87.9479 62.7418ZM71.4096 76.2924C78.4826 76.2924 84.6523 72.4448 87.9479 66.7476L81.023 62.7418C79.0986 66.0687 75.5114 68.2924 71.4096 68.2924V76.2924ZM59.6405 72.2352C62.883 74.7756 66.9748 76.2924 71.4096 76.2924V68.2924C68.8262 68.2924 66.459 67.4144 64.5744 65.9378L59.6405 72.2352ZM66.1075 87.3878V69.0865H58.1075V87.3878H66.1075ZM54.5598 98.9354C60.9374 98.9354 66.1075 93.7654 66.1075 87.3878H58.1075C58.1075 89.3471 56.5191 90.9354 54.5598 90.9354V98.9354ZM35.6906 98.9354H54.5598V90.9354H35.6906V98.9354ZM24.1429 87.3878C24.1429 93.7654 29.313 98.9354 35.6906 98.9354V90.9354C33.7313 90.9354 32.1429 89.3471 32.1429 87.3878H24.1429ZM24.1429 68.8742V87.3878H32.1429V68.8742H24.1429ZM18.5759 76.2924C23.1655 76.2924 27.3865 74.6681 30.6797 71.9668L25.6061 65.7815C23.6908 67.3526 21.2484 68.2924 18.5759 68.2924V76.2924ZM2.03758 66.7476C5.33322 72.4448 11.5029 76.2924 18.5759 76.2924V68.2924C14.4741 68.2924 10.8869 66.0687 8.96242 62.7418L2.03758 66.7476ZM18.5759 53.1971C11.5029 53.1971 5.33322 57.0446 2.03758 62.7418L8.96242 66.7476C10.8869 63.4208 14.4741 61.1971 18.5759 61.1971V53.1971ZM30.6797 57.5226C27.3865 54.8214 23.1655 53.1971 18.5759 53.1971V61.1971C21.2484 61.1971 23.6908 62.1369 25.6061 63.708L30.6797 57.5226ZM24.1429 57.1971L24.1429 60.6153L32.1429 60.6153L32.1429 57.197L24.1429 57.1971ZM9.04755 42.1017C9.04755 52.6478 17.5968 61.197 28.1429 61.197V53.197C22.0151 53.197 17.0475 48.2295 17.0475 42.1017H9.04755ZM9.64937 37.3308C9.25579 38.86 9.04755 40.4594 9.04755 42.1017H17.0475C17.0475 41.1377 17.1695 40.2081 17.3969 39.3249L9.64937 37.3308ZM28.1429 45.6494C22.9784 45.6494 18.6288 42.1172 17.3969 37.3308L9.64937 39.3249C11.7689 47.56 19.2398 53.6494 28.1429 53.6494L28.1429 45.6494ZM52.6729 81.9532C58.0084 81.9532 62.3336 77.6279 62.3336 72.2924H54.3336C54.3336 73.2096 53.5901 73.9532 52.6729 73.9532V81.9532ZM43.0121 72.2924C43.0121 77.6279 47.3374 81.9532 52.6729 81.9532V73.9532C51.7557 73.9532 51.0121 73.2096 51.0121 72.2924H43.0121ZM52.6729 62.6316C47.3374 62.6316 43.0121 66.9569 43.0121 72.2924H51.0121C51.0121 71.3752 51.7557 70.6316 52.6729 70.6316V62.6316ZM62.3336 72.2924C62.3336 66.9569 58.0084 62.6316 52.6729 62.6316V70.6316C53.5901 70.6316 54.3336 71.3752 54.3336 72.2924H62.3336ZM39.2383 72.2924C39.2383 73.2096 38.4947 73.9532 37.5775 73.9532V81.9532C42.913 81.9532 47.2383 77.6279 47.2383 72.2924H39.2383ZM37.5775 70.6316C38.4947 70.6316 39.2383 71.3752 39.2383 72.2924H47.2383C47.2383 66.9569 42.913 62.6316 37.5775 62.6316V70.6316ZM35.9168 72.2924C35.9168 71.3752 36.6603 70.6316 37.5775 70.6316V62.6316C32.242 62.6316 27.9168 66.9569 27.9168 72.2924H35.9168ZM37.5775 73.9532C36.6603 73.9532 35.9168 73.2096 35.9168 72.2924H27.9168C27.9168 77.6279 32.242 81.9532 37.5775 81.9532V73.9532Z" fill="#333333" mask="url(#path-2-outside-1)"/>
<path d="M166.709 83.6139V81.6139H164.709H146.282C138.55 81.6139 132.282 87.8819 132.282 95.6139V104.163C132.282 111.895 138.55 118.163 146.282 118.163H173.229C180.961 118.163 187.229 111.895 187.229 104.163V90.6899V88.6899H185.229H171.785C168.981 88.6899 166.709 86.4173 166.709 83.6139Z" fill="#FEFEFE" stroke="#333333" stroke-width="4"/>
<mask id="path-5-outside-2" maskUnits="userSpaceOnUse" x="142.144" y="65.9338" width="62" height="37" fill="black">
<rect fill="white" x="142.144" y="65.9338" width="62" height="37"/>
<path fill-rule="evenodd" clip-rule="evenodd" d="M186.762 72.9227C190.937 70.0227 195.591 69.7659 197.396 70C196.719 71.5521 194.378 75.343 190.423 78.0904C188.832 79.1956 187.288 79.9179 185.924 80.3765C182.542 94.0931 178.91 98.2376 172.77 98.2376C166.629 98.2376 162.997 94.0931 159.615 80.3765C158.251 79.9179 156.707 79.1956 155.116 78.0904C151.161 75.3431 148.82 71.5521 148.144 70.0001C149.949 69.766 154.602 70.0228 158.777 72.9228C160.313 73.9897 161.432 75.1699 162.234 76.3107L172.77 76.3106H183.305C184.108 75.1699 185.227 73.9897 186.762 72.9227ZM181.916 85.0291C181.916 87.1134 180.236 88.803 178.164 88.803C176.091 88.803 174.411 87.1134 174.411 85.0291C174.411 82.9449 176.091 81.2553 178.164 81.2553C180.236 81.2553 181.916 82.9449 181.916 85.0291ZM166.906 88.803C168.979 88.803 170.659 87.1134 170.659 85.0291C170.659 82.9449 168.979 81.2553 166.906 81.2553C164.834 81.2553 163.154 82.9449 163.154 85.0291C163.154 87.1134 164.834 88.803 166.906 88.803Z"/>
</mask>
<path fill-rule="evenodd" clip-rule="evenodd" d="M186.762 72.9227C190.937 70.0227 195.591 69.7659 197.396 70C196.719 71.5521 194.378 75.343 190.423 78.0904C188.832 79.1956 187.288 79.9179 185.924 80.3765C182.542 94.0931 178.91 98.2376 172.77 98.2376C166.629 98.2376 162.997 94.0931 159.615 80.3765C158.251 79.9179 156.707 79.1956 155.116 78.0904C151.161 75.3431 148.82 71.5521 148.144 70.0001C149.949 69.766 154.602 70.0228 158.777 72.9228C160.313 73.9897 161.432 75.1699 162.234 76.3107L172.77 76.3106H183.305C184.108 75.1699 185.227 73.9897 186.762 72.9227ZM181.916 85.0291C181.916 87.1134 180.236 88.803 178.164 88.803C176.091 88.803 174.411 87.1134 174.411 85.0291C174.411 82.9449 176.091 81.2553 178.164 81.2553C180.236 81.2553 181.916 82.9449 181.916 85.0291ZM166.906 88.803C168.979 88.803 170.659 87.1134 170.659 85.0291C170.659 82.9449 168.979 81.2553 166.906 81.2553C164.834 81.2553 163.154 82.9449 163.154 85.0291C163.154 87.1134 164.834 88.803 166.906 88.803Z" fill="#FEFEFE"/>
<path d="M197.396 70L201.062 71.598L203.189 66.718L197.91 66.0333L197.396 70ZM186.762 72.9227L184.48 69.6376V69.6376L186.762 72.9227ZM190.423 78.0904L192.705 81.3755L190.423 78.0904ZM185.924 80.3765L184.649 76.585L182.566 77.2852L182.04 79.419L185.924 80.3765ZM159.615 80.3765L163.499 79.419L162.973 77.2852L160.89 76.585L159.615 80.3765ZM155.116 78.0904L152.834 81.3755L152.834 81.3755L155.116 78.0904ZM148.144 70.0001L147.629 66.0333L142.35 66.718L144.477 71.5981L148.144 70.0001ZM158.777 72.9228L161.059 69.6377L161.059 69.6377L158.777 72.9228ZM162.234 76.3107L158.962 78.612L160.157 80.3107L162.234 80.3107L162.234 76.3107ZM172.77 76.3106V72.3106H172.77L172.77 76.3106ZM183.305 76.3106V80.3106H185.382L186.577 78.6119L183.305 76.3106ZM197.91 66.0333C195.322 65.6976 189.623 66.0652 184.48 69.6376L189.045 76.2079C192.251 73.9803 195.859 73.8343 196.881 73.9668L197.91 66.0333ZM192.705 81.3755C197.367 78.1368 200.141 73.7114 201.062 71.598L193.729 68.402C193.297 69.3928 191.388 72.5492 188.141 74.8053L192.705 81.3755ZM187.198 84.168C188.901 83.5957 190.787 82.7078 192.705 81.3755L188.141 74.8053C186.877 75.6834 185.675 76.2401 184.649 76.585L187.198 84.168ZM172.77 102.238C174.764 102.238 176.76 101.898 178.67 100.982C180.587 100.063 182.194 98.6688 183.561 96.8768C186.188 93.4331 188.095 88.2802 189.807 81.334L182.04 79.419C180.371 86.1895 178.77 89.9671 177.201 92.0248C176.469 92.9834 175.807 93.4828 175.21 93.7691C174.606 94.0586 173.846 94.2376 172.77 94.2376V102.238ZM155.732 81.334C157.444 88.2802 159.351 93.4331 161.978 96.8768C163.345 98.6689 164.953 100.063 166.869 100.982C168.78 101.898 170.776 102.238 172.77 102.238V94.2376C171.693 94.2376 170.933 94.0586 170.329 93.7691C169.732 93.4828 169.07 92.9833 168.338 92.0247C166.769 89.9671 165.168 86.1894 163.499 79.419L155.732 81.334ZM152.834 81.3755C154.752 82.7078 156.638 83.5956 158.341 84.168L160.89 76.585C159.864 76.2401 158.662 75.6834 157.398 74.8053L152.834 81.3755ZM144.477 71.5981C145.398 73.7114 148.172 78.1369 152.834 81.3755L157.398 74.8053C154.151 72.5493 152.242 69.3928 151.811 68.4021L144.477 71.5981ZM161.059 69.6377C155.916 66.0653 150.217 65.6976 147.629 66.0333L148.658 73.9669C149.68 73.8344 153.288 73.9803 156.495 76.2079L161.059 69.6377ZM165.506 74.0094C164.44 72.4942 162.989 70.9782 161.059 69.6377L156.495 76.2079C157.637 77.0012 158.423 77.8456 158.962 78.612L165.506 74.0094ZM172.77 72.3106L162.234 72.3107L162.234 80.3107L172.77 80.3106L172.77 72.3106ZM183.305 72.3106H172.77V80.3106H183.305V72.3106ZM184.48 69.6376C182.551 70.9782 181.099 72.4942 180.033 74.0093L186.577 78.6119C187.116 77.8456 187.903 77.0011 189.045 76.2079L184.48 69.6376ZM178.164 92.803C182.467 92.803 185.916 89.3011 185.916 85.0291H177.916C177.916 84.9256 178.006 84.803 178.164 84.803V92.803ZM170.411 85.0291C170.411 89.3011 173.861 92.803 178.164 92.803V84.803C178.322 84.803 178.411 84.9256 178.411 85.0291H170.411ZM178.164 77.2553C173.861 77.2553 170.411 80.7571 170.411 85.0291H178.411C178.411 85.1326 178.322 85.2553 178.164 85.2553V77.2553ZM185.916 85.0291C185.916 80.7571 182.467 77.2553 178.164 77.2553V85.2553C178.006 85.2553 177.916 85.1326 177.916 85.0291H185.916ZM166.659 85.0291C166.659 84.9256 166.748 84.803 166.906 84.803V92.803C171.209 92.803 174.659 89.3011 174.659 85.0291H166.659ZM166.906 85.2553C166.748 85.2553 166.659 85.1326 166.659 85.0291H174.659C174.659 80.7571 171.209 77.2553 166.906 77.2553V85.2553ZM167.154 85.0291C167.154 85.1326 167.064 85.2553 166.906 85.2553V77.2553C162.603 77.2553 159.154 80.7571 159.154 85.0291H167.154ZM166.906 84.803C167.064 84.803 167.154 84.9256 167.154 85.0291H159.154C159.154 89.3011 162.603 92.803 166.906 92.803V84.803Z" fill="#333333" mask="url(#path-5-outside-2)"/>
<mask id="path-7-outside-3" maskUnits="userSpaceOnUse" x="23.4296" y="0.34086" width="43.8406" height="43.8406" fill="black">
<rect fill="white" x="23.4296" y="0.34086" width="43.8406" height="43.8406"/>
<path fill-rule="evenodd" clip-rule="evenodd" d="M45.0975 16.9241L45.0975 16.9241C42.15 13.9766 37.3711 13.9766 34.4235 16.9242C31.476 19.8717 31.476 24.6506 34.4235 27.5982L34.4375 27.6122L45.0975 38.2722L55.7607 27.609C55.7643 27.6054 55.7679 27.6018 55.7716 27.5982C58.7191 24.6506 58.7191 19.8717 55.7716 16.9242C52.824 13.9766 48.0451 13.9766 45.0976 16.9241L45.0975 16.9241Z"/>
</mask>
<path fill-rule="evenodd" clip-rule="evenodd" d="M45.0975 16.9241L45.0975 16.9241C42.15 13.9766 37.3711 13.9766 34.4235 16.9242C31.476 19.8717 31.476 24.6506 34.4235 27.5982L34.4375 27.6122L45.0975 38.2722L55.7607 27.609C55.7643 27.6054 55.7679 27.6018 55.7716 27.5982C58.7191 24.6506 58.7191 19.8717 55.7716 16.9242C52.824 13.9766 48.0451 13.9766 45.0976 16.9241L45.0975 16.9241Z" fill="#3FD1FF"/>
<path d="M45.0975 16.9241L42.2691 19.7526L45.0975 22.581L47.926 19.7526L45.0975 16.9241ZM45.0975 16.9241L47.926 14.0957L45.0975 11.2673L42.2691 14.0957L45.0975 16.9241ZM34.4235 27.5982L31.5951 30.4266L31.5987 30.4302L34.4235 27.5982ZM34.4375 27.6122L37.266 24.7838L37.2623 24.7801L34.4375 27.6122ZM45.0975 38.2722L42.2691 41.1006L45.0975 43.929L47.926 41.1006L45.0975 38.2722ZM55.7607 27.609L52.9376 24.7753L52.9323 24.7806L55.7607 27.609ZM45.0976 16.9241L42.2691 19.7526L45.0975 22.581L47.926 19.7526L45.0976 16.9241ZM47.926 19.7526L47.926 19.7526L42.2691 14.0957L42.2691 14.0957L47.926 19.7526ZM37.2519 19.7526C38.6374 18.3671 40.8836 18.3671 42.2691 19.7526L47.9259 14.0957C43.4163 9.58608 36.1047 9.58609 31.5951 14.0957L37.2519 19.7526ZM37.2519 24.7698C35.8665 23.3843 35.8665 21.138 37.2519 19.7526L31.5951 14.0957C27.0854 18.6054 27.0854 25.917 31.5951 30.4266L37.2519 24.7698ZM37.2623 24.7801L37.2483 24.7661L31.5987 30.4302L31.6127 30.4442L37.2623 24.7801ZM47.926 35.4438L37.266 24.7838L31.6091 30.4406L42.2691 41.1006L47.926 35.4438ZM52.9323 24.7806L42.2691 35.4438L47.926 41.1006L58.5891 30.4375L52.9323 24.7806ZM52.9431 24.7698C52.9416 24.7713 52.9398 24.7731 52.9376 24.7753L58.5839 30.4427C58.5889 30.4377 58.5943 30.4323 58.6 30.4266L52.9431 24.7698ZM52.9431 19.7526C54.3286 21.138 54.3286 23.3843 52.9431 24.7698L58.6 30.4266C63.1096 25.917 63.1096 18.6054 58.6 14.0957L52.9431 19.7526ZM47.926 19.7526C49.3114 18.3671 51.5577 18.3671 52.9431 19.7526L58.6 14.0957C54.0904 9.58609 46.7788 9.58608 42.2691 14.0957L47.926 19.7526ZM42.2691 19.7526L42.2691 19.7526L47.926 14.0957L47.926 14.0957L42.2691 19.7526Z" fill="#333333" mask="url(#path-7-outside-3)"/>
</svg>
