<svg width="48" height="96" viewBox="0 0 48 96" fill="none" xmlns="http://www.w3.org/2000/svg">
<path fill-rule="evenodd" clip-rule="evenodd" d="M47.1455 23.5727C34.1266 10.5539 13.0189 10.5539 0 23.5728L3.36759 26.9403C14.5266 15.7814 32.6188 15.7814 43.7779 26.9403L47.1455 23.5727ZM40.4103 30.3078C31.1111 21.0088 16.0343 21.0088 6.73514 30.3079L10.1027 33.6755C17.542 26.2363 29.6034 26.2363 37.0427 33.6754L40.4103 30.3078ZM33.6752 37.0429C28.0957 31.4636 19.0497 31.4636 13.4702 37.043L16.8378 40.4106C20.5574 36.6911 26.588 36.6911 30.3076 40.4105L33.6752 37.0429Z" fill="#FEFEFE"/>
<path fill-rule="evenodd" clip-rule="evenodd" d="M17.9707 51.4119C17.9707 48.3337 20.4661 45.8384 23.5443 45.8384C26.6224 45.8384 29.1178 48.3337 29.1178 51.4119V55.9957H43.0516C44.5907 55.9957 45.8383 57.2434 45.8383 58.7825C45.8383 60.3216 44.5907 61.5693 43.0516 61.5693H29.1178V79.6833H43.0516C44.5907 79.6833 45.8383 80.931 45.8383 82.47C45.8383 84.0091 44.5907 85.2568 43.0516 85.2568H29.1178V90.4266C29.1178 93.5047 26.6224 96.0001 23.5443 96.0001C20.4661 96.0001 17.9707 93.5047 17.9707 90.4266V85.2568H4.0369C2.49781 85.2568 1.25014 84.0091 1.25014 82.47C1.25014 80.931 2.49781 79.6833 4.0369 79.6833H17.9707V61.5693H4.0369C2.49781 61.5693 1.25014 60.3216 1.25014 58.7825C1.25014 57.2434 2.49781 55.9957 4.0369 55.9957H17.9707V51.4119Z" fill="#3FD1FF"/>
<rect x="16.9186" y="62.3403" width="13.2512" height="17.0016" fill="#FEFEFE" stroke="#333333" stroke-width="2"/>
</svg>
